<svg width="123" height="16" viewBox="0 0 123 16" fill="none" xmlns="http://www.w3.org/2000/svg">
<path d="M16.5392 6.00113C16.5221 5.94841 16.4905 5.90155 16.4481 5.86585C16.4057 5.83016 16.3541 5.80704 16.2992 5.79913L10.9392 5.02013L8.54223 0.164125C8.5177 0.114826 8.4799 0.0733484 8.43308 0.0443544C8.38627 0.0153604 8.3323 0 8.27723 0C8.22216 0 8.16819 0.0153604 8.12138 0.0443544C8.07456 0.0733484 8.03676 0.114826 8.01223 0.164125L5.61323 5.02113L0.253229 5.80013C0.198678 5.80825 0.147468 5.83141 0.105337 5.867C0.063205 5.9026 0.0318162 5.94922 0.014687 6.00164C-0.00244215 6.05407 -0.00463505 6.11023 0.00835402 6.16383C0.0213431 6.21743 0.049001 6.26636 0.088229 6.30513L3.96823 10.0851L3.05123 15.4251C3.04223 15.4795 3.04855 15.5354 3.0695 15.5864C3.09045 15.6374 3.12519 15.6816 3.16983 15.714C3.21446 15.7464 3.26724 15.7657 3.32224 15.7698C3.37724 15.7739 3.43229 15.7626 3.48123 15.7371L8.27623 13.2171L13.0702 15.7371C13.1192 15.7631 13.1745 15.7747 13.2298 15.7708C13.2851 15.7668 13.3381 15.7475 13.3829 15.7148C13.4277 15.6822 13.4625 15.6377 13.4832 15.5863C13.504 15.5349 13.5099 15.4787 13.5002 15.4241L12.5842 10.0861L16.4642 6.30413C16.5442 6.22413 16.5742 6.10713 16.5392 6.00013V6.00113Z" fill="#EF9546"/>
<path d="M41.0929 6.00113C41.0757 5.94841 41.0442 5.90155 41.0018 5.86585C40.9593 5.83016 40.9078 5.80704 40.8529 5.79913L35.4929 5.02013L33.0959 0.164125C33.0714 0.114826 33.0336 0.0733484 32.9868 0.0443544C32.9399 0.0153604 32.886 0 32.8309 0C32.7758 0 32.7219 0.0153604 32.6751 0.0443544C32.6282 0.0733484 32.5904 0.114826 32.5659 0.164125L30.1669 5.02113L24.8069 5.80013C24.7524 5.80825 24.7011 5.83141 24.659 5.867C24.6169 5.9026 24.5855 5.94922 24.5684 6.00164C24.5512 6.05407 24.549 6.11023 24.562 6.16383C24.575 6.21743 24.6027 6.26636 24.6419 6.30513L28.5219 10.0851L27.6049 15.4251C27.5959 15.4795 27.6022 15.5354 27.6232 15.5864C27.6441 15.6374 27.6789 15.6816 27.7235 15.714C27.7681 15.7464 27.8209 15.7657 27.8759 15.7698C27.9309 15.7739 27.986 15.7626 28.0349 15.7371L32.8299 13.2171L37.6239 15.7371C37.6729 15.7631 37.7282 15.7747 37.7834 15.7708C37.8387 15.7668 37.8918 15.7475 37.9366 15.7148C37.9814 15.6822 38.0162 15.6377 38.0369 15.5863C38.0576 15.5349 38.0635 15.4787 38.0539 15.4241L37.1379 10.0861L41.0179 6.30413C41.0979 6.22413 41.1279 6.10713 41.0929 6.00013V6.00113Z" fill="#EF9546"/>
<path d="M65.6466 6.00113C65.6294 5.94841 65.5978 5.90155 65.5554 5.86585C65.513 5.83016 65.4614 5.80704 65.4066 5.79913L60.0466 5.02013L57.6496 0.164125C57.625 0.114826 57.5872 0.0733484 57.5404 0.0443544C57.4936 0.0153604 57.4396 0 57.3846 0C57.3295 0 57.2755 0.0153604 57.2287 0.0443544C57.1819 0.0733484 57.1441 0.114826 57.1196 0.164125L54.7206 5.02113L49.3606 5.80013C49.306 5.80825 49.2548 5.83141 49.2127 5.867C49.1705 5.9026 49.1391 5.94922 49.122 6.00164C49.1049 6.05407 49.1027 6.11023 49.1157 6.16383C49.1287 6.21743 49.1563 6.26636 49.1956 6.30513L53.0756 10.0851L52.1586 15.4251C52.1496 15.4795 52.1559 15.5354 52.1768 15.5864C52.1978 15.6374 52.2325 15.6816 52.2772 15.714C52.3218 15.7464 52.3746 15.7657 52.4296 15.7698C52.4846 15.7739 52.5396 15.7626 52.5886 15.7371L57.3836 13.2171L62.1776 15.7371C62.2265 15.7631 62.2818 15.7747 62.3371 15.7708C62.3924 15.7668 62.4454 15.7475 62.4903 15.7148C62.5351 15.6822 62.5698 15.6377 62.5906 15.5863C62.6113 15.5349 62.6172 15.4787 62.6076 15.4241L61.6916 10.0861L65.5716 6.30413C65.6516 6.22413 65.6816 6.10713 65.6466 6.00013V6.00113Z" fill="#EF9546"/>
<path d="M90.2002 6.00113C90.1831 5.94841 90.1515 5.90155 90.1091 5.86585C90.0667 5.83016 90.0151 5.80704 89.9602 5.79913L84.6002 5.02013L82.2032 0.164125C82.1787 0.114826 82.1409 0.0733484 82.0941 0.0443544C82.0473 0.0153604 81.9933 0 81.9382 0C81.8832 0 81.8292 0.0153604 81.7824 0.0443544C81.7356 0.0733484 81.6978 0.114826 81.6732 0.164125L79.2742 5.02113L73.9142 5.80013C73.8597 5.80825 73.8085 5.83141 73.7663 5.867C73.7242 5.9026 73.6928 5.94922 73.6757 6.00164C73.6586 6.05407 73.6564 6.11023 73.6694 6.16383C73.6824 6.21743 73.71 6.26636 73.7492 6.30513L77.6292 10.0851L76.7122 15.4251C76.7032 15.4795 76.7096 15.5354 76.7305 15.5864C76.7515 15.6374 76.7862 15.6816 76.8308 15.714C76.8755 15.7464 76.9283 15.7657 76.9833 15.7698C77.0383 15.7739 77.0933 15.7626 77.1422 15.7371L81.9372 13.2171L86.7312 15.7371C86.7802 15.7631 86.8355 15.7747 86.8908 15.7708C86.9461 15.7668 86.9991 15.7475 87.0439 15.7148C87.0887 15.6822 87.1235 15.6377 87.1442 15.5863C87.165 15.5349 87.1709 15.4787 87.1612 15.4241L86.2452 10.0861L90.1252 6.30413C90.2052 6.22413 90.2352 6.10713 90.2002 6.00013V6.00113Z" fill="#EF9546"/>
<path d="M114.754 6.00113C114.737 5.94841 114.705 5.90155 114.663 5.86585C114.62 5.83016 114.569 5.80704 114.514 5.79913L109.154 5.02013L106.757 0.164125C106.732 0.114826 106.695 0.0733484 106.648 0.0443544C106.601 0.0153604 106.547 0 106.492 0C106.437 0 106.383 0.0153604 106.336 0.0443544C106.289 0.0733484 106.251 0.114826 106.227 0.164125L103.828 5.02113L98.4679 5.80013C98.4134 5.80825 98.3622 5.83141 98.32 5.867C98.2779 5.9026 98.2465 5.94922 98.2294 6.00164C98.2122 6.05407 98.2101 6.11023 98.223 6.16383C98.236 6.21743 98.2637 6.26636 98.3029 6.30513L102.183 10.0851L101.266 15.4251C101.257 15.4795 101.263 15.5354 101.284 15.5864C101.305 15.6374 101.34 15.6816 101.385 15.714C101.429 15.7464 101.482 15.7657 101.537 15.7698C101.592 15.7739 101.647 15.7626 101.696 15.7371L106.491 13.2171L111.285 15.7371C111.334 15.7631 111.389 15.7747 111.444 15.7708C111.5 15.7668 111.553 15.7475 111.598 15.7148C111.642 15.6822 111.677 15.6377 111.698 15.5863C111.719 15.5349 111.725 15.4787 111.715 15.4241L110.799 10.0861L114.679 6.30413C114.759 6.22413 114.789 6.10713 114.754 6.00013V6.00113Z" fill="#EF9546"/>
</svg>
